<svg xmlns="http://www.w3.org/2000/svg" viewBox="0 0 366.94 274.21"><defs><style>.cls-1{fill:#141a26;}.cls-12,.cls-2,.cls-4,.cls-5,.cls-6,.cls-7,.cls-8,.cls-9{fill:none;stroke-miterlimit:10;}.cls-2,.cls-4,.cls-5,.cls-6{stroke:#292929;}.cls-2{stroke-width:2px;}.cls-3{fill:#292929;}.cls-4{stroke-width:1.87px;}.cls-5{stroke-width:2.4px;}.cls-6{stroke-width:1.38px;}.cls-7,.cls-8,.cls-9{stroke:#fff;}.cls-7{stroke-width:2.57px;}.cls-8{stroke-width:3.65px;}.cls-9{stroke-width:5.56px;}.cls-10{fill:#fff;}.cls-11{fill:#0d0d0d;}.cls-12{stroke:#231f20;}</style></defs><g id="Layer_2" data-name="Layer 2"><g id="Layer_1-2" data-name="Layer 1"><path class="cls-1" d="M127.35,38.55h19.29v4.39H122V2.24h5.4Z"/><path class="cls-1" d="M150.58,27.54a17.94,17.94,0,0,1,1.74-8,13.08,13.08,0,0,1,4.87-5.48,13.3,13.3,0,0,1,7.11-1.93,12.78,12.78,0,0,1,10,4.28q3.81,4.28,3.81,11.38v.36a18,18,0,0,1-1.69,7.93,12.78,12.78,0,0,1-4.83,5.46,13.37,13.37,0,0,1-7.23,2,12.75,12.75,0,0,1-10-4.28q-3.81-4.28-3.81-11.32Zm5.2.61a13,13,0,0,0,2.33,8.08,7.91,7.91,0,0,0,12.51,0q2.32-3.09,2.32-8.65a13,13,0,0,0-2.36-8.07,7.51,7.51,0,0,0-6.28-3.09,7.42,7.42,0,0,0-6.17,3.05Q155.78,22.48,155.78,28.15Z"/><path class="cls-1" d="M203.27,40q-3,3.55-8.86,3.55c-3.22,0-5.68-.94-7.36-2.81s-2.54-4.65-2.56-8.32V12.69h5.17V32.23q0,6.89,5.59,6.88,5.92,0,7.88-4.42v-22h5.18V42.94h-4.92Z"/><path class="cls-1" d="M214.9,27.56q0-7,3.3-11.19a11.22,11.22,0,0,1,17.06-.6V0h5.17V42.94h-4.76l-.25-3.24a10.54,10.54,0,0,1-8.64,3.8,10.31,10.31,0,0,1-8.56-4.31Q214.9,34.89,214.9,28Zm5.18.59c0,3.43.7,6.11,2.12,8.05a6.87,6.87,0,0,0,5.87,2.91,7.55,7.55,0,0,0,7.19-4.42V20.8a7.62,7.62,0,0,0-7.13-4.28,6.9,6.9,0,0,0-5.93,2.94C220.78,21.41,220.08,24.31,220.08,28.15Z"/><path class="cls-1" d="M92.7,273.77v-32h10.45q5.2,0,7.82,2.15a7.77,7.77,0,0,1,2.63,6.37,6.47,6.47,0,0,1-1.28,4,8.2,8.2,0,0,1-3.46,2.67,7.43,7.43,0,0,1,4.09,2.76,7.92,7.92,0,0,1,1.5,4.84,8.54,8.54,0,0,1-2.78,6.76q-2.79,2.46-7.89,2.46Zm4.21-18.33h6.37a6.63,6.63,0,0,0,4.42-1.39,4.63,4.63,0,0,0,1.66-3.76,4.56,4.56,0,0,0-1.54-3.84,7.52,7.52,0,0,0-4.67-1.2H96.91Zm0,3.38v11.5h7a6.76,6.76,0,0,0,4.65-1.52,5.38,5.38,0,0,0,1.7-4.21q0-5.77-6.28-5.77Z"/><path class="cls-1" d="M119,261.67a14,14,0,0,1,1.37-6.28,10.2,10.2,0,0,1,3.82-4.3,10.38,10.38,0,0,1,5.59-1.51,10,10,0,0,1,7.85,3.35,13,13,0,0,1,3,8.94v.29a14.23,14.23,0,0,1-1.32,6.22,10.11,10.11,0,0,1-3.8,4.29,10.49,10.49,0,0,1-5.68,1.54,10,10,0,0,1-7.83-3.36,12.89,12.89,0,0,1-3-8.89Zm4.08.49a10.16,10.16,0,0,0,1.83,6.34,6.22,6.22,0,0,0,9.83,0,11.15,11.15,0,0,0,1.82-6.8,10.19,10.19,0,0,0-1.85-6.33,5.9,5.9,0,0,0-4.93-2.43,5.82,5.82,0,0,0-4.85,2.4Q123.07,257.69,123.06,262.16Z"/><path class="cls-1" d="M144.62,261.67a14.12,14.12,0,0,1,1.37-6.28,10.27,10.27,0,0,1,3.82-4.3,10.43,10.43,0,0,1,5.59-1.51,10,10,0,0,1,7.85,3.35,12.92,12.92,0,0,1,3,8.94v.29a14.09,14.09,0,0,1-1.33,6.22,10,10,0,0,1-3.8,4.29,10.48,10.48,0,0,1-5.67,1.54,10,10,0,0,1-7.83-3.36,12.84,12.84,0,0,1-3-8.89Zm4.09.49a10.16,10.16,0,0,0,1.83,6.34,6.21,6.21,0,0,0,9.82,0,11.08,11.08,0,0,0,1.83-6.8,10.13,10.13,0,0,0-1.86-6.33,5.9,5.9,0,0,0-4.93-2.43,5.83,5.83,0,0,0-4.85,2.4Q148.7,257.69,148.71,262.16Z"/><path class="cls-1" d="M178,262.77l-2.54,2.66v8.34h-4.07V240.05h4.07v20.39l2.17-2.61L185,250h4.94l-9.24,9.93L191,273.77h-4.76Z"/><path class="cls-1" d="M203.22,270.89a5.89,5.89,0,0,0,3.8-1.31,4.67,4.67,0,0,0,1.8-3.3h3.84a7.38,7.38,0,0,1-1.4,3.89,9.3,9.3,0,0,1-3.46,2.94,10,10,0,0,1-4.58,1.1A9.8,9.8,0,0,1,195.5,271q-2.87-3.24-2.86-8.86v-.68a14.3,14.3,0,0,1,1.27-6.17,9.67,9.67,0,0,1,3.66-4.19,10.31,10.31,0,0,1,5.63-1.49,9.5,9.5,0,0,1,6.64,2.39,8.55,8.55,0,0,1,2.82,6.21h-3.84a5.6,5.6,0,0,0-1.75-3.79,5.45,5.45,0,0,0-3.87-1.48,5.71,5.71,0,0,0-4.8,2.23,10.49,10.49,0,0,0-1.7,6.44v.77a10.26,10.26,0,0,0,1.69,6.33A5.74,5.74,0,0,0,203.22,270.89Z"/><path class="cls-1" d="M221.64,273.77h-4.06V240.05h4.06Z"/><path class="cls-1" d="M242.81,271.42q-2.37,2.79-7,2.79a7.4,7.4,0,0,1-5.79-2.21q-2-2.21-2-6.53V250h4.06v15.35c0,3.6,1.47,5.4,4.39,5.4,3.11,0,5.17-1.15,6.2-3.47V250h4.06v23.76h-3.87Z"/><path class="cls-1" d="M273,262.16a14.13,14.13,0,0,1-2.5,8.75,8,8,0,0,1-6.72,3.3,8.29,8.29,0,0,1-7-3.18l-.2,2.74h-3.73V240.05H257v12.58a8.21,8.21,0,0,1,6.78-3,8.05,8.05,0,0,1,6.8,3.27q2.48,3.27,2.47,9Zm-4.06-.47a11,11,0,0,0-1.61-6.41,5.31,5.31,0,0,0-4.61-2.26,6,6,0,0,0-5.77,3.73V267a6.12,6.12,0,0,0,5.82,3.73,5.27,5.27,0,0,0,4.54-2.26Q269,266.24,269,261.69Z"/><path class="cls-2" d="M256.08,94.1V196.76a5,5,0,0,1-5,5H115.85a5,5,0,0,1-5-5V94.1a5,5,0,0,1,5-5h1.35V191.36a5.53,5.53,0,0,0,5.53,5.53H180V89.11h6.35V196.89h57.83a5.52,5.52,0,0,0,5.52-5.53V89.11h1.36A5,5,0,0,1,256.08,94.1Z"/><rect class="cls-3" x="178.53" y="87.66" width="9.35" height="115.55"/><rect class="cls-2" x="178.64" y="201.75" width="9.35" height="1.84" rx="0.92"/><rect class="cls-4" x="180.03" y="89.11" width="6.35" height="107.78"/><path class="cls-5" d="M249.73,89.11V191.36a5.52,5.52,0,0,1-5.52,5.53H186.38V89H180V196.89h-57.3a5.53,5.53,0,0,1-5.53-5.53V89.11c19-9.49,46.74-9,66.27-.93C203,80.13,230.75,79.62,249.73,89.11Z"/><path class="cls-5" d="M185.62,194.18c-19.53-8.05-47.28-8.56-66.27.92"/><path class="cls-5" d="M182.41,194.18c19.53-8.05,47.28-8.56,66.27.92"/><path class="cls-6" d="M169.43,112.61c-11.25-4.64-27.25-4.94-38.19.53"/><path class="cls-6" d="M169.43,126.67c-11.25-4.65-27.25-4.94-38.19.53"/><path class="cls-6" d="M169.43,140.72c-11.25-4.64-27.25-4.93-38.19.53"/><path class="cls-6" d="M169.43,154.78c-11.25-4.64-27.25-4.94-38.19.53"/><path class="cls-6" d="M169.43,168.84c-11.25-4.65-27.25-4.94-38.19.53"/><path class="cls-6" d="M200.05,112.61c11.25-4.64,27.25-4.94,38.19.53"/><path class="cls-6" d="M200.05,126.67c11.25-4.65,27.25-4.94,38.19.53"/><path class="cls-6" d="M200.05,140.72c11.25-4.64,27.25-4.93,38.19.53"/><path class="cls-6" d="M200.05,154.78c11.25-4.64,27.25-4.94,38.19.53"/><path class="cls-6" d="M200.05,168.84c11.25-4.65,27.25-4.94,38.19.53"/><path class="cls-7" d="M88.81,103a56,56,0,0,1-.67,79.24"/><path class="cls-8" d="M118.46,86.41a79.4,79.4,0,0,1-1,112.34"/><path class="cls-9" d="M142.73,57.16a121.1,121.1,0,0,1-1.47,171.35"/><circle class="cls-10" cx="38.12" cy="144.09" r="38.12"/><circle class="cls-11" cx="54.67" cy="127.97" r="4"/><path class="cls-7" d="M278.13,103a56,56,0,0,0,.68,79.24"/><path class="cls-8" d="M248.49,86.41a79.38,79.38,0,0,0,1,112.34"/><path class="cls-9" d="M224.21,57.16a121.1,121.1,0,0,0,1.47,171.35"/><circle class="cls-10" cx="328.83" cy="144.09" r="38.12"/><circle class="cls-11" cx="312.28" cy="127.97" r="4"/><line class="cls-12" x1="290.71" y1="144.09" x2="308.28" y2="143.83"/><line class="cls-12" x1="58.67" y1="144.34" x2="76.23" y2="144.09"/></g></g></svg>