<svg xmlns="http://www.w3.org/2000/svg" width="174.069" height="136.663" viewBox="0 0 174.069 136.663">
  <g id="Group_52" data-name="Group 52" transform="translate(2 2)">
    <path id="Path_3" data-name="Path 3" d="M61.56,77.165q0,9.065-.971,12.885a2.16,2.16,0,0,1-2.266,1.878q-4.792,0-14.374-.55t-14.375-.55q-4.533,0-13.533.194t-13.533.194A1.431,1.431,0,0,1,.888,89.6q0-7.058.486-21.3T1.86,46.927q0-7.511-.68-22.5T.5,1.924Q.5.5,2.119.5,3.284.5,5.68.694T9.306.888q1.165,0,3.626-.194T16.558.5q1.554,0,1.554,1.23,0,6.864-.518,20.656t-.518,20.72V53.337q-.065,6.863-.065,10.231,0,14.375,1.165,14.375,23.893,0,36.066-1.165.583-.065,2.979-.454a16.454,16.454,0,0,1,2.979-.388Q61.56,75.935,61.56,77.165Z" transform="translate(-0.5 -0.5)" fill="#1b65a6" stroke="#032340" stroke-miterlimit="10" stroke-width="4"/>
    <path id="Path_4" data-name="Path 4" d="M236.9,200.947a29.122,29.122,0,0,1-6.8,19.361,22.89,22.89,0,0,1-18.26,8.482q-4.144,0-12.465-.194t-12.464-.194q-3.043,0-9.162.259t-9.162.259q-1.619,0-1.619-1.489,0-7.123.68-21.4t.68-21.4q0-7.511-.68-22.566t-.68-22.566q0-1.424,1.619-1.424,5.763,0,17.353.065t17.418.065q13.6,0,21.692,5.051,9.842,6.151,9.842,19.1a22.084,22.084,0,0,1-8.871,16.576q-1.878,1.23-1.878,1.619t1.878,1.425a20.26,20.26,0,0,1,7.9,8A22.034,22.034,0,0,1,236.9,200.947Zm-18.2-37.167q0-9.13-8.158-12.3-4.921-1.878-16.123-1.878-10.878,0-10.878,1.619,0,2.137-.194,6.411t-.194,6.475q0,1.489.065,4.6t.065,4.662q0,1.878,14.633,1.878Q218.706,175.241,218.706,163.78Zm1.748,36.519q0-7.9-7.058-10.684-4.468-1.813-13.922-1.813-16.317,0-16.317,1.748V200.17q0,2.331.13,7.122t.129,7.188q0,.647,4.144.971t12.3.324q10.231,0,14.7-2.655Q220.454,209.624,220.454,200.3Z" transform="translate(-116.369 -96.256)" fill="#1b65a6" stroke="#032340" stroke-miterlimit="10" stroke-width="4"/>
    <path id="Path_5" data-name="Path 5" d="M79.588,212.4a3.964,3.964,0,0,1-1.071,2.792,3.693,3.693,0,0,1-5.435.008,4.153,4.153,0,0,1,0-5.568,3.726,3.726,0,0,1,5.428,0A3.884,3.884,0,0,1,79.588,212.4Zm-1.65.016a2.389,2.389,0,0,0-.587-1.627,1.95,1.95,0,0,0-1.548-.712,1.983,1.983,0,0,0-1.556.7,2.547,2.547,0,0,0,.008,3.262,2.013,2.013,0,0,0,3.1,0A2.428,2.428,0,0,0,77.938,212.415Z" transform="translate(-50.274 -145.246)" fill="#fff"/>
    <path id="Path_6" data-name="Path 6" d="M107.7,209.956q0,.571-.047,1.724t-.047,1.732q0,.571.035,1.709t.035,1.709a.2.2,0,0,1-.149.2q-.062.016-1.588.016-.094,0-.113-.587t-.09-.587a.223.223,0,0,0-.117.071,3.975,3.975,0,0,1-2.581,1.134,2.237,2.237,0,0,1-2.284-1.251,7.69,7.69,0,0,1-.344-2.784,13.966,13.966,0,0,1,.289-3.074q.071-.305.258-.3.227,0,.681.008t.68.008q.156,0,.157.172a8.308,8.308,0,0,1-.1,1.017,10.486,10.486,0,0,0-.117,1.071q-.024.469-.024,1.033a5.606,5.606,0,0,0,.2,1.838,1.427,1.427,0,0,0,1.494.845,2.112,2.112,0,0,0,1.165-.485q.712-.508.735-.978.039-.586.039-4.129,0-.383.321-.383h1.29Q107.7,209.683,107.7,209.956Z" transform="translate(-70.045 -146.088)" fill="#fff"/>
    <path id="Path_7" data-name="Path 7" d="M136.068,197.687q0,1.009-.09,3.023t-.09,3.015q0,3.09.133,4.677l.008.1c.005.052-.065.086-.211.1a2.744,2.744,0,0,1-.423,0q-.328-.023-.3-.023-.117,0-.344.023t-.344.023q-.109,0-.129-.543a1.572,1.572,0,0,0-.059-.551.457.457,0,0,0-.117.1,3.3,3.3,0,0,1-5.06-.047,4.089,4.089,0,0,1-.962-2.737,4.158,4.158,0,0,1,.97-2.8,3.323,3.323,0,0,1,2.651-1.189,2.7,2.7,0,0,1,1.721.579q.336.29.665.587a.1.1,0,0,0,.063-.109v-2.534q0-.258-.024-.782t-.023-.79q0-.188.125-.188.29,0,.86-.051t.853-.051Q136.068,197.523,136.068,197.687Zm-1.955,7.117a2.539,2.539,0,0,0-.579-1.65A1.9,1.9,0,0,0,132,202.4a1.977,1.977,0,0,0-1.588.751,2.532,2.532,0,0,0-.595,1.689,2.383,2.383,0,0,0,.618,1.634,1.984,1.984,0,0,0,1.564.735,1.918,1.918,0,0,0,1.548-.743A2.553,2.553,0,0,0,134.113,204.8Z" transform="translate(-89.297 -137.635)" fill="#fff"/>
    <path id="Path_8" data-name="Path 8" d="M402.467,390.188a3.963,3.963,0,0,1-1.072,2.792,3.693,3.693,0,0,1-5.435.008,4.153,4.153,0,0,1,0-5.568,3.725,3.725,0,0,1,5.428,0A3.883,3.883,0,0,1,402.467,390.188Zm-1.65.016a2.39,2.39,0,0,0-.586-1.626,1.951,1.951,0,0,0-1.549-.712,1.983,1.983,0,0,0-1.556.7,2.546,2.546,0,0,0,.008,3.261,2.012,2.012,0,0,0,3.1,0A2.428,2.428,0,0,0,400.817,390.2Z" transform="translate(-275.009 -268.993)" fill="#fff"/>
    <path id="Path_9" data-name="Path 9" d="M429.406,390.188a3.963,3.963,0,0,1-1.071,2.792,3.693,3.693,0,0,1-5.436.008,4.153,4.153,0,0,1,0-5.568,3.725,3.725,0,0,1,5.428,0A3.883,3.883,0,0,1,429.406,390.188Zm-1.65.016a2.389,2.389,0,0,0-.587-1.626,1.951,1.951,0,0,0-1.548-.712,1.983,1.983,0,0,0-1.556.7,2.546,2.546,0,0,0,.008,3.261,2.012,2.012,0,0,0,3.1,0A2.426,2.426,0,0,0,427.756,390.2Z" transform="translate(-293.759 -268.993)" fill="#fff"/>
    <path id="Path_10" data-name="Path 10" d="M458.04,380.86a2.656,2.656,0,0,1-1.885,2.722,8.729,8.729,0,0,0,1.564,2.487q0,.117-.782.156-.516.024-.774.023-.555,0-.7-.234-.367-.626-1.158-1.822a4.4,4.4,0,0,0-1.7-.117l-.305.008v1.932q0,.242-.172.242-.25,0-.739-.008t-.739-.008q-.172,0-.172-.305v-4.864q0-.954-.074-2.855t-.074-2.854a.144.144,0,0,1,.149-.157q.258-.008.782-.031.109-.008.461-.055a3.491,3.491,0,0,1,.454-.039q.109,0,.109.188,0,.423-.039,1.259t-.039,1.259V379.8c0,.11.024.164.071.164q.188-.156.563-.461a4.155,4.155,0,0,1,2.5-1.017,2.915,2.915,0,0,1,1.892.594A2.166,2.166,0,0,1,458.04,380.86Zm-1.885.367q0-1.118-1.447-1.118a3.673,3.673,0,0,0-2.432,1.439v1.165a8.58,8.58,0,0,0,1.533.117,3.239,3.239,0,0,0,1.549-.344A1.363,1.363,0,0,0,456.155,381.227Z" transform="translate(-313.602 -261.221)" fill="#fff"/>
    <path id="Path_11" data-name="Path 11" d="M483.536,386.76a3.623,3.623,0,0,1-.18.766q-.18.594-.25.595l-.708-.313a1.912,1.912,0,0,0-.778-.156,2.068,2.068,0,0,0-1.6.712,2.429,2.429,0,0,0-.641,1.681,2.353,2.353,0,0,0,.641,1.65,2.089,2.089,0,0,0,1.6.719,2.26,2.26,0,0,0,1.033-.258q.508-.258.446-.258.1,0,.227.657a5.064,5.064,0,0,1,.117.821q0,.242-.915.477a5.133,5.133,0,0,1-1.134.2,3.559,3.559,0,0,1-2.722-1.2,4.2,4.2,0,0,1-.023-5.615,3.558,3.558,0,0,1,2.73-1.189,3.76,3.76,0,0,1,2,.555Q483.536,386.689,483.536,386.76Z" transform="translate(-332.568 -268.85)" fill="#fff"/>
    <path id="Path_12" data-name="Path 12" d="M502.287,375.771l-.008.1q-.172,2.909-.172,5,0,.931.031,2.788t.031,2.78c0,.12-.042.18-.125.18h-1.494q-.141,0-.141-.18,0-.923.015-2.78t.016-2.788q0-.844-.082-2.538t-.082-2.53q0-.156.164-.156.14,0,.422.023c.188.016.329.023.422.023s.245-.008.438-.023.336-.023.43-.023S502.292,375.688,502.287,375.771Z" transform="translate(-348.363 -261.615)" fill="#fff"/>
    <path id="Path_13" data-name="Path 13" d="M519.119,387.745q0,.571-.047,1.724t-.047,1.732q0,.571.035,1.709t.035,1.709a.2.2,0,0,1-.149.2q-.062.015-1.588.016-.093,0-.113-.587t-.09-.586a.223.223,0,0,0-.117.07,3.975,3.975,0,0,1-2.581,1.134,2.237,2.237,0,0,1-2.284-1.251,7.688,7.688,0,0,1-.344-2.784,13.951,13.951,0,0,1,.289-3.074q.07-.305.258-.3.227,0,.68.008t.681.008q.156,0,.156.172a8.25,8.25,0,0,1-.1,1.017,10.587,10.587,0,0,0-.117,1.071q-.024.469-.023,1.032a5.612,5.612,0,0,0,.2,1.838,1.427,1.427,0,0,0,1.494.844,2.111,2.111,0,0,0,1.165-.485q.712-.508.735-.978.039-.587.039-4.129,0-.383.321-.383h1.29Q519.119,387.471,519.119,387.745Z" transform="translate(-356.404 -269.835)" fill="#fff"/>
    <path id="Path_14" data-name="Path 14" d="M548.315,382.357a4.075,4.075,0,0,1-.962,2.7,3.2,3.2,0,0,1-2.55,1.22,3.155,3.155,0,0,1-1.791-.516q-.313-.266-.626-.524-.086.024-.113.469t-.129.446h-1.65q-.094,0-.094-.1c0,.005.005-.042.015-.141q.125-1.251.125-4.786,0-1.447-.125-4.247-.078-1.783-.078-1.564a.2.2,0,0,1,.2-.227q.281-.008.837-.031.109-.008.446-.055a2.92,2.92,0,0,1,.453-.047q.125,0,.125.18,0,.266-.039.813t-.039.821q0,.407-.035,1.224t-.035,1.224q0,.3.109.3.055,0,.117-.086a2.774,2.774,0,0,1,2.276-1.071,3.234,3.234,0,0,1,2.62,1.212A4.253,4.253,0,0,1,548.315,382.357Zm-1.768-.071a2.507,2.507,0,0,0-.587-1.642,1.924,1.924,0,0,0-1.541-.759,1.962,1.962,0,0,0-1.564.743,2.605,2.605,0,0,0,0,3.331,1.985,1.985,0,0,0,1.58.735,1.91,1.91,0,0,0,1.541-.759A2.54,2.54,0,0,0,546.548,382.287Z" transform="translate(-376.247 -261.131)" fill="#fff"/>
  </g>
</svg>
