<svg xmlns="http://www.w3.org/2000/svg" viewBox="0 0 386.44 386.44"><defs><style>.cls-1{fill:#2065a5;}.cls-2{fill:#d1d3d4;}</style></defs><g id="Layer_2" data-name="Layer 2"><g id="Layer_1-2" data-name="Layer 1"><rect class="cls-1" width="386.44" height="386.44"/><path class="cls-2" d="M87.33,239.47V79.56h31.09V212.22H200v27.25Z"/><path class="cls-2" d="M299.11,265.67a36.24,36.24,0,0,1-15.2,30.63,52.28,52.28,0,0,1-16.45,7.88,71.47,71.47,0,0,1-19.93,2.7H170.28V147h85.59A31.5,31.5,0,0,1,271,150.58a37.59,37.59,0,0,1,11.48,9.34A42.67,42.67,0,0,1,289.76,173a43.83,43.83,0,0,1-3.26,36.72,35.67,35.67,0,0,1-17.12,15.2,41.16,41.16,0,0,1,21.74,14.53Q299.1,249.9,299.11,265.67Zm-97.75-92.12v40.31H242.8a18.44,18.44,0,0,0,13.4-5.4q5.52-5.42,5.52-14.87,0-9.22-5.06-14.64a16.48,16.48,0,0,0-12.51-5.4Zm66.44,86.26a23.57,23.57,0,0,0-1.46-8.22,22.9,22.9,0,0,0-3.94-6.87,18.47,18.47,0,0,0-5.86-4.62,16.46,16.46,0,0,0-7.43-1.69H201.36v42.12h46.17a20.31,20.31,0,0,0,8-1.57,19.09,19.09,0,0,0,6.42-4.4,21.32,21.32,0,0,0,5.85-14.75Z"/></g></g></svg>